<?xml version="1.0" encoding="UTF-8" standalone="no"?>
<!-- Created with Inkscape (http://www.inkscape.org/) -->

<svg
   xmlns:dc="http://purl.org/dc/elements/1.1/"
   xmlns:cc="http://creativecommons.org/ns#"
   xmlns:rdf="http://www.w3.org/1999/02/22-rdf-syntax-ns#"
   xmlns:svg="http://www.w3.org/2000/svg"
   xmlns="http://www.w3.org/2000/svg"
   xmlns:sodipodi="http://sodipodi.sourceforge.net/DTD/sodipodi-0.dtd"
   xmlns:inkscape="http://www.inkscape.org/namespaces/inkscape"
   version="1.1"
   id="svg10"
   xml:space="preserve"
   width="666.66669"
   height="666.66669"
   viewBox="0 0 666.66669 666.66669"
   sodipodi:docname="favicon.svg"
   inkscape:export-filename="C:\Users\classy draught\favicon.svg.png"
   inkscape:export-xdpi="96"
   inkscape:export-ydpi="96"
   inkscape:version="0.92.4 (5da689c313, 2019-01-14)"><metadata
     id="metadata16"><rdf:RDF><cc:Work
         rdf:about=""><dc:format>image/svg+xml</dc:format><dc:type
           rdf:resource="http://purl.org/dc/dcmitype/StillImage" /></cc:Work></rdf:RDF></metadata><defs
     id="defs14"><linearGradient
       x1="0"
       y1="0"
       x2="1"
       y2="0"
       gradientUnits="userSpaceOnUse"
       gradientTransform="matrix(98.45501,183.90674,183.90674,-98.45501,212.22696,229.51517)"
       spreadMethod="pad"
       id="linearGradient52"><stop
         style="stop-opacity:1;stop-color:#00df66"
         offset="0"
         id="stop46" /><stop
         style="stop-opacity:1;stop-color:#ffe000"
         offset="0.65513627"
         id="stop48" /><stop
         style="stop-opacity:1;stop-color:#ffe000"
         offset="1"
         id="stop50" /></linearGradient><clipPath
       clipPathUnits="userSpaceOnUse"
       id="clipPath62"><path
         d="M 0,500 H 500 V 0 H 0 Z"
         id="path60"
         inkscape:connector-curvature="0" /></clipPath><clipPath
       clipPathUnits="userSpaceOnUse"
       id="clipPath70"><path
         d="m 298.47,381.982 h 63.38 V 201.177 h -63.38 z"
         id="path68"
         inkscape:connector-curvature="0" /></clipPath><clipPath
       clipPathUnits="userSpaceOnUse"
       id="clipPath74"><path
         d="m 353.798,341.823 c -6.188,15.373 -15.688,29.056 -27.627,40.159 l -10.846,-0.703 c 14.455,-11.645 25.736,-27.071 32.337,-44.772 4.235,-11.348 6.554,-23.618 6.554,-36.43 0,-3.068 -0.14,-6.1 -0.401,-9.098 -3.118,-36.187 -24.735,-67.062 -55.345,-83.17 l 3.839,-6.631 c 34.72,18.424 58.6,54.556 59.506,96.372 v 0.017 c 0.018,0.837 0.036,1.674 0.036,2.51 0,14.764 -2.859,28.847 -8.053,41.746"
         id="path72"
         inkscape:connector-curvature="0" /></clipPath><linearGradient
       x1="0"
       y1="0"
       x2="1"
       y2="0"
       gradientUnits="userSpaceOnUse"
       gradientTransform="matrix(13.351048,-174.45169,-174.45169,-13.351048,319.46176,395.90549)"
       spreadMethod="pad"
       id="linearGradient90"><stop
         style="stop-opacity:0;stop-color:#ffffff"
         offset="0"
         id="stop80" /><stop
         style="stop-opacity:0;stop-color:#ffffff"
         offset="0.1313284"
         id="stop82" /><stop
         style="stop-opacity:1;stop-color:#ffffff"
         offset="0.496089"
         id="stop84" /><stop
         style="stop-opacity:0;stop-color:#ffffff"
         offset="0.80190106"
         id="stop86" /><stop
         style="stop-opacity:0;stop-color:#ffffff"
         offset="1"
         id="stop88" /></linearGradient><mask
       maskUnits="userSpaceOnUse"
       x="0"
       y="0"
       width="1"
       height="1"
       id="mask92"><g
         id="g102"><g
           id="g100"><g
             id="g98"><g
               id="g96"><path
                 d="M -32768,32767 H 32767 V -32768 H -32768 Z"
                 style="fill:url(#linearGradient90);stroke:none"
                 id="path94"
                 inkscape:connector-curvature="0" /></g></g></g></g></mask><linearGradient
       x1="0"
       y1="0"
       x2="1"
       y2="0"
       gradientUnits="userSpaceOnUse"
       gradientTransform="matrix(13.351048,-174.45169,-174.45169,-13.351048,319.46176,395.90549)"
       spreadMethod="pad"
       id="linearGradient114"><stop
         style="stop-opacity:1;stop-color:#ffe000"
         offset="0"
         id="stop104" /><stop
         style="stop-opacity:1;stop-color:#ffe000"
         offset="0.1313284"
         id="stop106" /><stop
         style="stop-opacity:1;stop-color:#00df66"
         offset="0.496089"
         id="stop108" /><stop
         style="stop-opacity:1;stop-color:#ffe000"
         offset="0.80190106"
         id="stop110" /><stop
         style="stop-opacity:1;stop-color:#ffe000"
         offset="1"
         id="stop112" /></linearGradient><linearGradient
       x1="0"
       y1="0"
       x2="1"
       y2="0"
       gradientUnits="userSpaceOnUse"
       gradientTransform="matrix(84.058296,145.36055,145.36055,-84.058296,237.14598,197.53311)"
       spreadMethod="pad"
       id="linearGradient150"><stop
         style="stop-opacity:1;stop-color:#00df66"
         offset="0"
         id="stop146" /><stop
         style="stop-opacity:1;stop-color:#ffe000"
         offset="1"
         id="stop148" /></linearGradient><clipPath
       clipPathUnits="userSpaceOnUse"
       id="clipPath160"><path
         d="M 0,500 H 500 V 0 H 0 Z"
         id="path158"
         inkscape:connector-curvature="0" /></clipPath><clipPath
       clipPathUnits="userSpaceOnUse"
       id="clipPath168"><path
         d="M 200.254,388.534 H 380.597 V 192.319 H 200.254 Z"
         id="path166"
         inkscape:connector-curvature="0" /></clipPath><radialGradient
       fx="0"
       fy="0"
       cx="0"
       cy="0"
       r="1"
       gradientUnits="userSpaceOnUse"
       gradientTransform="matrix(36.223965,-160.68611,-160.68611,-36.223965,195.64922,367.59494)"
       spreadMethod="pad"
       id="radialGradient182"><stop
         style="stop-opacity:1;stop-color:#ffffff"
         offset="0"
         id="stop174" /><stop
         style="stop-opacity:1;stop-color:#040000"
         offset="0.54460012"
         id="stop176" /><stop
         style="stop-opacity:1;stop-color:#040000"
         offset="0.750203"
         id="stop178" /><stop
         style="stop-opacity:1;stop-color:#040000"
         offset="1"
         id="stop180" /></radialGradient><linearGradient
       x1="0"
       y1="0"
       x2="1"
       y2="0"
       gradientUnits="userSpaceOnUse"
       gradientTransform="matrix(84.058289,145.36053,145.36053,-84.058289,166.98993,238.10254)"
       spreadMethod="pad"
       id="linearGradient214"><stop
         style="stop-opacity:1;stop-color:#00df66"
         offset="0"
         id="stop210" /><stop
         style="stop-opacity:1;stop-color:#ffe000"
         offset="1"
         id="stop212" /></linearGradient><clipPath
       clipPathUnits="userSpaceOnUse"
       id="clipPath224"><path
         d="M 0,500 H 500 V 0 H 0 Z"
         id="path222"
         inkscape:connector-curvature="0" /></clipPath><clipPath
       clipPathUnits="userSpaceOnUse"
       id="clipPath232"><path
         d="M 143.499,337.479 H 259.31 V 242.902 H 143.499 Z"
         id="path230"
         inkscape:connector-curvature="0" /></clipPath><radialGradient
       fx="0"
       fy="0"
       cx="0"
       cy="0"
       r="1"
       gradientUnits="userSpaceOnUse"
       gradientTransform="matrix(45.047935,-129.1068,-129.1068,-45.047935,156.17435,401.0329)"
       spreadMethod="pad"
       id="radialGradient246"><stop
         style="stop-opacity:1;stop-color:#ffffff"
         offset="0"
         id="stop238" /><stop
         style="stop-opacity:1;stop-color:#040000"
         offset="0.54460012"
         id="stop240" /><stop
         style="stop-opacity:1;stop-color:#040000"
         offset="0.750203"
         id="stop242" /><stop
         style="stop-opacity:1;stop-color:#040000"
         offset="1"
         id="stop244" /></radialGradient><clipPath
       clipPathUnits="userSpaceOnUse"
       id="clipPath268"><path
         d="M 200.254,388.534 H 380.597 V 192.319 H 200.254 Z"
         id="path266"
         inkscape:connector-curvature="0" /></clipPath><radialGradient
       fx="0"
       fy="0"
       cx="0"
       cy="0"
       r="1"
       gradientUnits="userSpaceOnUse"
       gradientTransform="matrix(-74.176239,-70.927719,-70.927719,74.176239,442.2514,350.87628)"
       spreadMethod="pad"
       id="radialGradient282"><stop
         style="stop-opacity:1;stop-color:#ffffff"
         offset="0"
         id="stop274" /><stop
         style="stop-opacity:1;stop-color:#040000"
         offset="0.54460012"
         id="stop276" /><stop
         style="stop-opacity:1;stop-color:#040000"
         offset="0.750203"
         id="stop278" /><stop
         style="stop-opacity:1;stop-color:#040000"
         offset="1"
         id="stop280" /></radialGradient><clipPath
       clipPathUnits="userSpaceOnUse"
       id="clipPath304"><path
         d="m 315.05,392.626 h 65.346 V 361.327 H 315.05 Z"
         id="path302"
         inkscape:connector-curvature="0" /></clipPath><clipPath
       clipPathUnits="userSpaceOnUse"
       id="clipPath308"><path
         d="m 358.661,371.806 c -5.915,8.815 -20.026,12.313 -32.49,10.176 -3.504,3.277 -7.217,6.31 -11.121,9.099 28.603,6.397 56.004,-7.756 65.346,-29.753"
         id="path306"
         inkscape:connector-curvature="0" /></clipPath><linearGradient
       x1="0"
       y1="0"
       x2="1"
       y2="0"
       gradientUnits="userSpaceOnUse"
       gradientTransform="matrix(84.639259,9.0560551,9.0560551,-84.639259,272.92892,368.41006)"
       spreadMethod="pad"
       id="linearGradient320"><stop
         style="stop-opacity:1;stop-color:#ffffff"
         offset="0"
         id="stop314" /><stop
         style="stop-opacity:1;stop-color:#ffffff"
         offset="0.33093809"
         id="stop316" /><stop
         style="stop-opacity:0;stop-color:#ffffff"
         offset="1"
         id="stop318" /></linearGradient><mask
       maskUnits="userSpaceOnUse"
       x="0"
       y="0"
       width="1"
       height="1"
       id="mask322"><g
         id="g332"><g
           id="g330"><g
             id="g328"><g
               id="g326"><path
                 d="M -32768,32767 H 32767 V -32768 H -32768 Z"
                 style="fill:url(#linearGradient320);stroke:none"
                 id="path324"
                 inkscape:connector-curvature="0" /></g></g></g></g></mask><linearGradient
       x1="0"
       y1="0"
       x2="1"
       y2="0"
       gradientUnits="userSpaceOnUse"
       gradientTransform="matrix(84.639259,9.0560551,9.0560551,-84.639259,272.92892,368.41006)"
       spreadMethod="pad"
       id="linearGradient340"><stop
         style="stop-opacity:1;stop-color:#00df66"
         offset="0"
         id="stop334" /><stop
         style="stop-opacity:1;stop-color:#00df66"
         offset="0.33093809"
         id="stop336" /><stop
         style="stop-opacity:1;stop-color:#ffe000"
         offset="1"
         id="stop338" /></linearGradient></defs><sodipodi:namedview
     pagecolor="#ffffff"
     bordercolor="#666666"
     borderopacity="1"
     objecttolerance="10"
     gridtolerance="10"
     guidetolerance="10"
     inkscape:pageopacity="0"
     inkscape:pageshadow="2"
     inkscape:window-width="1366"
     inkscape:window-height="715"
     id="namedview12"
     showgrid="false"
     inkscape:zoom="0.81899998"
     inkscape:cx="333.33334"
     inkscape:cy="333.33334"
     inkscape:window-x="-8"
     inkscape:window-y="-8"
     inkscape:window-maximized="1"
     inkscape:current-layer="g18" /><g
     id="g18"
     inkscape:groupmode="layer"
     inkscape:label="3410485"
     transform="matrix(1.3333333,0,0,-1.3333333,0,666.66667)"><path
       d="M 0,0 H 500 V 500 H 0 Z"
       style="fill:#ffffff;fill-opacity:1;fill-rule:nonzero;stroke:none"
       id="path20"
       inkscape:connector-curvature="0" /><g
       id="g34"><g
         id="g36"><g
           id="g42"><g
             id="g44"><path
               d="m 138.149,300.077 c 0,-2.545 0.087,-5.072 0.262,-7.582 v 0 c 1.516,-22.869 9.918,-43.838 23.148,-60.902 v 0 c 0.191,3.783 0.592,7.583 1.255,11.383 v 0 c -10.773,16.384 -17.03,36.01 -17.03,57.101 v 0 c 0,0.331 0,0.663 0.017,0.977 v 0 c 0.506,57.101 46.975,103.239 104.199,103.239 v 0 c 44.744,0 82.898,-28.202 97.662,-67.787 v 0 c 4.235,-11.347 6.554,-23.617 6.554,-36.429 v 0 c 0,-3.068 -0.14,-6.1 -0.401,-9.099 v 0 c -3.974,-46.12 -37.998,-83.613 -82.393,-92.902 v 0 h -0.018 c -6.902,-1.448 -14.066,-2.197 -21.404,-2.197 v 0 c -15.844,0 -30.869,3.538 -44.325,9.865 v 0 c 6.24,-8.105 14.415,-13.142 20.811,-15.025 v 0 -0.017 c 7.582,-1.621 15.444,-2.475 23.514,-2.475 v 0 c 18.337,0 35.646,4.41 50.914,12.236 v 0 c 0.122,0.07 0.262,0.14 0.401,0.209 v 0 c 0.174,0.086 0.332,0.175 0.505,0.262 v 0 c 0.158,0.086 0.314,0.174 0.471,0.261 v 0 l 0.017,-0.017 c 34.721,18.424 58.601,54.556 59.507,96.372 v 0 0.017 c 0.018,0.837 0.035,1.674 0.035,2.51 v 0 c 0,14.764 -2.858,28.847 -8.052,41.746 v 0 c -6.187,15.374 -15.688,29.056 -27.627,40.159 v 0 c -3.504,3.277 -7.217,6.31 -11.122,9.099 v 0 C 296.713,404.206 274.262,411.927 250,411.927 v 0 c -61.773,0 -111.851,-50.077 -111.851,-111.85"
               style="fill:url(#linearGradient52);stroke:none"
               id="path54"
               inkscape:connector-curvature="0" /></g></g></g></g><g
       id="g56"><g
         id="g58"
         clip-path="url(#clipPath62)"><g
           id="g64"><g
             id="g66" /><g
             id="g132"><g
               clip-path="url(#clipPath70)"
               id="g130"><g
                 id="g128"><g
                   clip-path="url(#clipPath74)"
                   id="g126"><g
                     id="g124"><g
                       id="g116" /><g
                       mask="url(#mask92)"
                       id="g122"><g
                         id="g120"><path
                           d="m 353.798,341.823 c -6.188,15.373 -15.688,29.056 -27.627,40.159 l -10.846,-0.703 c 14.455,-11.645 25.736,-27.071 32.337,-44.772 4.235,-11.348 6.554,-23.618 6.554,-36.43 0,-3.068 -0.14,-6.1 -0.401,-9.098 -3.118,-36.187 -24.735,-67.062 -55.345,-83.17 l 3.839,-6.631 c 34.72,18.424 58.6,54.556 59.506,96.372 v 0.017 c 0.018,0.837 0.036,1.674 0.036,2.51 0,14.764 -2.859,28.847 -8.053,41.746"
                           style="fill:url(#linearGradient114);stroke:none"
                           id="path118"
                           inkscape:connector-curvature="0" /></g></g></g></g></g></g></g></g></g></g><g
       id="g134"><g
         id="g136"><g
           id="g142"><g
             id="g144"><path
               d="m 315.049,391.081 c 3.905,-2.789 7.618,-5.822 11.122,-9.099 v 0 c 12.464,2.136 26.575,-1.361 32.49,-10.176 v 0 c 7.565,-11.274 5.341,-25.515 -26.108,-38.568 v 0 C 302.331,320.692 222.477,304.591 202.903,261.887 v 0 c -11.557,-25.204 -6.536,-44.064 2.772,-56.143 v 0 c 6.24,-8.105 14.415,-13.142 20.811,-15.025 v 0 -0.017 c 7.582,-1.621 15.444,-2.475 23.514,-2.475 v 0 c 17.918,0 34.86,4.217 49.868,11.73 v 0 c -9.901,-4.724 -20.445,-5.699 -27.627,-1.691 v 0 c -5.02,2.772 -8.402,7.984 -8.819,16.002 v 0 c -1.343,26.371 28.063,40.995 67.647,62.296 v 0 c 8.662,4.654 16.227,9.464 22.746,14.414 v 0 c 2.877,2.162 5.542,4.359 8,6.572 v 0 0.017 c 22.207,20.01 27.889,41.833 18.582,63.76 v 0 c -7.812,18.391 -28.244,31.299 -51.45,31.299 v 0 c -4.55,0 -9.208,-0.497 -13.898,-1.545"
               style="fill:url(#linearGradient150);stroke:none"
               id="path152"
               inkscape:connector-curvature="0" /></g></g></g></g><g
       id="g198"><g
         id="g200"><g
           id="g206"><g
             id="g208"><path
               d="m 145.801,301.054 -0.076,-0.081 c -4.958,-5.24 -7.202,-12.575 -6.001,-19.688 v 0 c 3.122,-18.505 10.798,-35.457 21.835,-49.692 v 0 c 0.191,3.783 0.592,7.583 1.255,11.383 v 0 c 6.92,39.88 40.35,80.057 120.791,95.901 v 0 c -10.552,1.622 -22.096,2.695 -34.105,2.695 v 0 c -35.084,-10e-4 -74.105,-9.159 -103.699,-40.518"
               style="fill:url(#linearGradient214);stroke:none"
               id="path216"
               inkscape:connector-curvature="0" /></g></g></g></g></g></svg>